<svg width="53" height="53" viewBox="0 0 53 53" fill="none" xmlns="http://www.w3.org/2000/svg">
<path d="M46.375 40.8542C46.375 43.9039 43.9039 46.375 40.8542 46.375H12.1458C9.09723 46.375 6.625 43.9039 6.625 40.8542V12.1458C6.625 9.09612 9.09723 6.625 12.1458 6.625H40.8542C43.9039 6.625 46.375 9.09612 46.375 12.1458V40.8542Z" fill="#3F51B5"/>
<path d="M37.948 27.6042H34.2291V41.9583H28.7083V27.6042H25.3958V23.1875H28.7083V20.5265C28.7105 16.653 30.3193 14.3542 34.8828 14.3542H38.6458V18.7708H36.1206C34.344 18.7708 34.2291 19.4333 34.2291 20.6733V23.1875H38.6458L37.948 27.6042Z" fill="white"/>
</svg>
